<svg width="31" height="21" viewBox="0 0 31 21" fill="none" xmlns="http://www.w3.org/2000/svg">
<path fill-rule="evenodd" clip-rule="evenodd" d="M1.35941 0C1.05339 0 0.759908 0.121566 0.54352 0.337954C0.327132 0.554342 0.205566 0.847827 0.205566 1.15385C0.205566 1.45987 0.327132 1.75335 0.54352 1.96974C0.759908 2.18613 1.05339 2.30769 1.35941 2.30769H29.0517C29.3577 2.30769 29.6512 2.18613 29.8676 1.96974C30.084 1.75335 30.2056 1.45987 30.2056 1.15385C30.2056 0.847827 30.084 0.554342 29.8676 0.337954C29.6512 0.121566 29.3577 0 29.0517 0H1.35941ZM0.205566 10.3846C0.205566 10.0786 0.327132 9.78511 0.54352 9.56872C0.759908 9.35234 1.05339 9.23077 1.35941 9.23077H29.0517C29.3577 9.23077 29.6512 9.35234 29.8676 9.56872C30.084 9.78511 30.2056 10.0786 30.2056 10.3846C30.2056 10.6906 30.084 10.9841 29.8676 11.2005C29.6512 11.4169 29.3577 11.5385 29.0517 11.5385H1.35941C1.05339 11.5385 0.759908 11.4169 0.54352 11.2005C0.327132 10.9841 0.205566 10.6906 0.205566 10.3846V10.3846ZM0.205566 19.6154C0.205566 19.3094 0.327132 19.0159 0.54352 18.7995C0.759908 18.5831 1.05339 18.4615 1.35941 18.4615H29.0517C29.3577 18.4615 29.6512 18.5831 29.8676 18.7995C30.084 19.0159 30.2056 19.3094 30.2056 19.6154C30.2056 19.9214 30.084 20.2149 29.8676 20.4313C29.6512 20.6477 29.3577 20.7692 29.0517 20.7692H1.35941C1.05339 20.7692 0.759908 20.6477 0.54352 20.4313C0.327132 20.2149 0.205566 19.9214 0.205566 19.6154V19.6154Z" fill="white"/>
</svg>
