<svg width="40" height="40" viewBox="0 0 40 40" fill="none" xmlns="http://www.w3.org/2000/svg">
<path d="M37.7923 40.0002C39.0114 40.0002 40 39.0117 40 37.7925V2.20766C40 0.988281 39.0114 0 37.7923 0H2.20766C0.988125 0 0 0.988281 0 2.20766V37.7925C0 39.0117 0.988125 40.0002 2.20766 40.0002H37.7923Z" fill="#395185"/>
<path d="M27.5992 40.0001V24.51H32.7987L33.5772 18.4733H27.5992V14.6189C27.5992 12.8711 28.0847 11.68 30.5911 11.68L33.7878 11.6786V6.27938C33.2347 6.20578 31.3372 6.04141 29.1297 6.04141C24.5206 6.04141 21.3653 8.85469 21.3653 14.0212V18.4733H16.1525V24.51H21.3653V40.0001H27.5992Z" fill="white"/>
</svg>
