<svg width="133" height="50" viewBox="0 0 133 50" fill="white" xmlns="http://www.w3.org/2000/svg">
<path fill-rule="evenodd" clip-rule="evenodd" d="M25.7787 40.4003H8.40857C6.68556 40.4003 5.26221 38.9769 5.26221 37.2539V18.4507C5.26221 16.7276 6.68556 15.3043 8.40857 15.3043H14.7013C14.8511 15.3043 15.2257 15.0795 15.3006 14.9297L16.4243 12.6074C16.8738 11.7834 17.9226 11.1091 18.8965 11.1091H27.2119C28.1858 11.1091 29.2345 11.7834 29.684 12.6074L30.8077 14.9297C30.8826 15.0795 31.1823 15.3043 31.407 15.3043H37.6998C39.3007 15.3043 40.6429 16.533 40.8251 18.0892C40.7823 18.1466 40.7399 18.2049 40.6982 18.2623C40.5704 18.4379 40.449 18.6048 40.3437 18.7101C39.9173 19.3661 39.6096 20.2311 39.3648 20.919C39.0776 21.7265 38.8772 22.2898 38.6736 21.9843V18.5255C38.6736 17.9262 38.2242 17.4768 37.6249 17.4768H31.3321C30.3582 17.4768 29.3095 16.8025 28.86 15.9785L27.7363 13.6562C27.6614 13.5063 27.3617 13.2816 27.137 13.2816H18.8216C18.6717 13.2816 18.2972 13.5063 18.2223 13.6562L17.0985 15.9785C16.6491 16.8025 15.6003 17.4768 14.6264 17.4768H8.40857C7.80926 17.4768 7.35979 17.9262 7.35979 18.5255V37.3289C7.35979 37.9282 7.80926 38.3776 8.40857 38.3776H20.2824C20.659 38.6368 21.9639 39.4195 23.68 39.1743C25.0231 38.9824 25.6481 39.7973 25.7787 40.4003ZM26.0542 35.7009C25.1016 36.0277 24.0797 36.2051 23.0167 36.2051C17.8477 36.2051 13.6525 32.01 13.6525 26.841C13.6525 21.6719 17.8477 17.4768 23.0167 17.4768C27.2714 17.4768 30.8663 20.3191 32.005 24.2072C31.2492 24.5874 30.5608 24.8005 30.032 24.6759C29.105 21.6826 26.3089 19.4994 23.0167 19.4994C18.9714 19.4994 15.6752 22.7956 15.6752 26.841C15.6752 30.8863 18.9714 34.1825 23.0167 34.1825C24.1328 34.1825 25.1919 33.9316 26.1404 33.4833C26.1038 34.1925 26.0748 34.9324 26.0542 35.7009ZM13.6525 13.2816H9.45736V14.3304H13.6525V13.2816ZM23.0167 22.6458V21.597C20.17 21.597 17.7728 23.9193 17.7728 26.841H18.8216C18.8216 24.5186 20.6944 22.6458 23.0167 22.6458Z" fill="#fff"/>
<path d="M27.8253 38.2046C27.8253 37.7978 27.866 37.3213 27.9474 36.775C28.0287 36.2171 28.145 35.6243 28.2961 34.9967C28.4588 34.3691 28.6448 33.7124 28.854 33.0266C29.0748 32.3409 29.3189 31.6551 29.5862 30.9693C29.8187 30.3533 30.086 29.7315 30.3882 29.1039C30.702 28.4762 31.0391 27.8602 31.3994 27.2558C31.7597 26.6514 32.1317 26.0761 32.5152 25.5298C32.9104 24.9835 33.3056 24.4837 33.7007 24.0304C33.8867 24.0304 34.0843 24.0537 34.2935 24.1002C34.5144 24.1467 34.7236 24.2106 34.9212 24.292C35.1304 24.3617 35.3163 24.4489 35.4791 24.5535C35.6534 24.6581 35.7929 24.7627 35.8975 24.8673C35.0258 25.7623 34.2412 26.6689 33.5438 27.5871C32.8465 28.4937 32.2944 29.3479 31.8876 30.1499C31.6667 30.5916 31.4633 31.0042 31.2774 31.3878C31.103 31.7713 30.9403 32.1549 30.7892 32.5384C30.6381 32.9104 30.4986 33.2881 30.3708 33.6717C30.2545 34.0436 30.1441 34.4388 30.0395 34.8572C32.2711 32.0096 33.9274 30.5858 35.0083 30.5858C35.3105 30.5858 35.636 30.6846 35.9847 30.8822C36.3333 31.0798 36.6414 31.3471 36.9087 31.6842C36.5484 32.0793 36.1764 32.5559 35.7929 33.1138C35.4093 33.6717 35.0548 34.2354 34.7294 34.8049C34.4156 35.3628 34.154 35.8859 33.9448 36.374C33.7472 36.8506 33.6484 37.2051 33.6484 37.4375C33.6484 37.5537 33.6659 37.6351 33.7007 37.6816C33.7356 37.7165 33.8112 37.7339 33.9274 37.7339C34.1017 37.7339 34.2412 37.7107 34.3458 37.6642C34.4504 37.6177 34.5144 37.5944 34.5376 37.5944C34.5957 37.6874 34.6306 37.7513 34.6422 37.7862C34.6538 37.8211 34.6596 37.8501 34.6596 37.8734C34.6596 37.9199 34.5899 37.9896 34.4504 38.0826C34.311 38.164 34.1424 38.2511 33.9448 38.3441C33.7589 38.4255 33.5729 38.501 33.3869 38.5708C33.201 38.6405 33.0615 38.6754 32.9685 38.6754C32.8523 38.6754 32.736 38.6405 32.6198 38.5708C32.5036 38.5126 32.399 38.4313 32.306 38.3267C32.2246 38.2221 32.1549 38.1058 32.0968 37.978C32.0503 37.8501 32.027 37.7165 32.027 37.577C32.027 37.4026 32.0735 37.1469 32.1665 36.8099C32.2711 36.4612 32.4106 36.0602 32.5849 35.6069C32.7593 35.142 32.9685 34.6364 33.2126 34.0901C33.4567 33.5438 33.7182 32.9859 33.9971 32.4164C33.9971 32.3699 33.9739 32.3467 33.9274 32.3467C33.8925 32.3467 33.7995 32.3932 33.6484 32.4861C33.509 32.5791 33.3753 32.6721 33.2475 32.7651C32.829 33.0789 32.4048 33.4683 31.9747 33.9332C31.5563 34.3865 31.1437 34.8863 30.7369 35.4326C30.3417 35.9788 29.964 36.56 29.6037 37.176C29.255 37.7804 28.9528 38.3906 28.6971 39.0066C28.6622 39.088 28.6099 39.1635 28.5402 39.2333C28.4704 39.303 28.4123 39.3379 28.3658 39.3379C28.3309 39.3379 28.2786 39.2972 28.2089 39.2158C28.1508 39.1345 28.0927 39.0299 28.0346 38.902C27.9881 38.7858 27.9416 38.6637 27.8951 38.5359C27.8486 38.408 27.8253 38.2976 27.8253 38.2046Z" fill="white"/>
<path d="M42.8643 31.4575C42.9805 31.4575 43.1142 31.4808 43.2653 31.5272C43.428 31.5621 43.5733 31.6144 43.7012 31.6842C43.829 31.7423 43.9336 31.8062 44.015 31.8759C44.108 31.9457 44.1545 32.0096 44.1545 32.0677C43.922 32.5559 43.707 33.0499 43.5094 33.5496C43.3118 34.0378 43.1433 34.5085 43.0038 34.9618C42.8643 35.4151 42.7539 35.8394 42.6725 36.2345C42.6028 36.6297 42.5679 36.9726 42.5679 37.2632C42.5679 37.5886 42.6028 37.8618 42.6725 38.0826C42.7423 38.2918 42.8585 38.4429 43.0212 38.5359C42.8817 38.6289 42.7016 38.7044 42.4808 38.7625C42.2599 38.8206 42.0623 38.8497 41.888 38.8497C41.2603 38.8497 40.9465 38.4197 40.9465 37.5596C40.9465 36.897 41.1674 35.9905 41.609 34.8398C41.3766 35.3744 41.1092 35.88 40.807 36.3566C40.5049 36.8215 40.1968 37.2341 39.883 37.5944C39.5692 37.9547 39.2496 38.2511 38.9241 38.4836C38.6103 38.7044 38.3197 38.8381 38.0524 38.8846C37.6224 38.8613 37.2737 38.6579 37.0063 38.2744C36.739 37.8792 36.6054 37.3794 36.6054 36.775C36.6054 36.1241 36.7448 35.4384 37.0238 34.7177C37.3027 33.9971 37.6572 33.3288 38.0873 32.7128C38.529 32.0968 39.0055 31.5854 39.5169 31.1786C40.0283 30.7601 40.5223 30.5393 40.9988 30.516C41.1151 30.5509 41.2429 30.6207 41.3824 30.7253C41.5335 30.8299 41.673 30.9519 41.8008 31.0914C41.9403 31.2309 42.0565 31.3761 42.1495 31.5272C42.2425 31.6667 42.2948 31.7888 42.3064 31.8934C41.8415 31.9631 41.3591 32.1898 40.8594 32.5733C40.3712 32.9569 39.9237 33.4218 39.5169 33.9681C39.1217 34.5027 38.7963 35.0781 38.5406 35.6941C38.2849 36.3101 38.157 36.8854 38.157 37.4201C38.157 37.6409 38.2384 37.7804 38.4011 37.8385C38.7382 37.7688 39.1275 37.484 39.5692 36.9842C40.0109 36.4728 40.5455 35.6883 41.1732 34.6306C41.2894 34.4214 41.4173 34.1889 41.5567 33.9332C41.7078 33.6775 41.8589 33.4102 42.01 33.1312C42.1611 32.8523 42.3064 32.5733 42.4459 32.2944C42.597 32.0038 42.7365 31.7248 42.8643 31.4575Z" fill="white"/>
<path d="M51.0537 31.5621C51.0421 31.7829 51.0014 32.0154 50.9317 32.2595C50.8736 32.4919 50.798 32.707 50.705 32.9046C50.6121 33.0905 50.5133 33.2474 50.4087 33.3753C50.304 33.5031 50.2053 33.5671 50.1123 33.5671C49.9844 33.5555 49.9089 33.4683 49.8856 33.3056C49.8856 33.2707 49.8972 33.2184 49.9205 33.1486C49.9554 33.0673 49.9902 32.9801 50.0251 32.8871C50.06 32.7941 50.089 32.7012 50.1123 32.6082C50.1471 32.5152 50.1646 32.4338 50.1646 32.3641C50.1646 32.2014 50.1239 32.0677 50.0425 31.9631C49.9728 31.8469 49.874 31.7888 49.7461 31.7888C49.2812 31.7888 48.9267 32.0793 48.6826 32.6605C48.4386 33.2416 48.3165 34.0959 48.3165 35.2233C48.3165 35.3396 48.3223 35.4093 48.334 35.4326C48.578 35.4209 48.7931 35.4151 48.979 35.4151C49.1766 35.4035 49.3684 35.3977 49.5544 35.3977C49.566 35.4209 49.5718 35.4674 49.5718 35.5372C49.5718 35.6418 49.5486 35.7173 49.5021 35.7638C49.2347 35.8219 49.0197 35.8742 48.857 35.9207C48.7059 35.9556 48.5897 35.9905 48.5083 36.0253C48.4269 36.0602 48.3746 36.1009 48.3514 36.1474C48.3398 36.1822 48.334 36.2345 48.334 36.3043C48.334 36.3973 48.334 36.4902 48.334 36.5832C48.3456 36.6762 48.3514 36.7924 48.3514 36.9319C48.3514 37.9082 48.0841 38.6928 47.5494 39.2856C47.0264 39.8783 46.2941 40.2212 45.3527 40.3142C45.1899 40.3026 45.0214 40.2561 44.8471 40.1747C44.6727 40.0934 44.5042 39.9888 44.3415 39.8609C44.1904 39.733 44.0567 39.5878 43.9405 39.425C43.8242 39.2739 43.7429 39.117 43.6964 38.9543C43.6964 38.5126 43.7894 38.0942 43.9753 37.699C44.1613 37.2922 44.4112 36.9377 44.725 36.6355C45.0505 36.3217 45.4282 36.0718 45.8583 35.8859C46.2999 35.6883 46.7765 35.572 47.2879 35.5372C47.2879 35.2466 47.2588 34.9618 47.2007 34.6829C47.1426 34.4039 47.0787 34.1366 47.0089 33.8809C46.9508 33.6136 46.8927 33.3579 46.8346 33.1138C46.7765 32.8581 46.7474 32.6082 46.7474 32.3641C46.7474 32.0503 46.8113 31.7423 46.9392 31.4401C47.0671 31.1263 47.2356 30.8415 47.4448 30.5858C47.654 30.3185 47.8981 30.0918 48.177 29.9058C48.456 29.7199 48.7466 29.592 49.0488 29.5223C49.1766 29.5572 49.3452 29.6618 49.5544 29.8361C49.7752 29.9988 49.9902 30.1848 50.1994 30.394C50.4087 30.6032 50.5946 30.8182 50.7573 31.0391C50.9201 31.2483 51.0189 31.4226 51.0537 31.5621ZM45.3004 39.5122C45.5793 39.396 45.8408 39.2274 46.0849 39.0066C46.3406 38.7858 46.5615 38.5359 46.7474 38.2569C46.9334 37.978 47.0787 37.6816 47.1833 37.3678C47.2995 37.054 47.3576 36.7459 47.3576 36.4438C47.1252 36.4786 46.8695 36.589 46.5905 36.775C46.3116 36.9494 46.05 37.1644 45.806 37.4201C45.5619 37.6642 45.3585 37.9199 45.1958 38.1872C45.033 38.4545 44.9517 38.687 44.9517 38.8846C44.9517 39.1403 45.0679 39.3495 45.3004 39.5122Z" fill="white"/>
<path d="M57.0809 31.4575C57.1971 31.4575 57.3308 31.4808 57.4819 31.5272C57.6446 31.5621 57.7899 31.6144 57.9177 31.6842C58.0456 31.7423 58.1502 31.8062 58.2315 31.8759C58.3245 31.9457 58.371 32.0096 58.371 32.0677C58.1386 32.5559 57.9235 33.0499 57.7259 33.5496C57.5283 34.0378 57.3598 34.5085 57.2203 34.9618C57.0809 35.4151 56.9704 35.8394 56.8891 36.2345C56.8193 36.6297 56.7845 36.9726 56.7845 37.2632C56.7845 37.5886 56.8193 37.8618 56.8891 38.0826C56.9588 38.2918 57.0751 38.4429 57.2378 38.5359C57.0983 38.6289 56.9181 38.7044 56.6973 38.7625C56.4765 38.8206 56.2789 38.8497 56.1045 38.8497C55.4769 38.8497 55.1631 38.4197 55.1631 37.5596C55.1631 36.897 55.3839 35.9905 55.8256 34.8398C55.5931 35.3744 55.3258 35.88 55.0236 36.3566C54.7214 36.8215 54.4134 37.2341 54.0996 37.5944C53.7858 37.9547 53.4661 38.2511 53.1407 38.4836C52.8269 38.7044 52.5363 38.8381 52.269 38.8846C51.8389 38.8613 51.4902 38.6579 51.2229 38.2744C50.9556 37.8792 50.8219 37.3794 50.8219 36.775C50.8219 36.1241 50.9614 35.4384 51.2403 34.7177C51.5193 33.9971 51.8738 33.3288 52.3038 32.7128C52.7455 32.0968 53.222 31.5854 53.7335 31.1786C54.2449 30.7601 54.7388 30.5393 55.2154 30.516C55.3316 30.5509 55.4595 30.6207 55.5989 30.7253C55.75 30.8299 55.8895 30.9519 56.0174 31.0914C56.1568 31.2309 56.2731 31.3761 56.3661 31.5272C56.459 31.6667 56.5113 31.7888 56.523 31.8934C56.058 31.9631 55.5757 32.1898 55.0759 32.5733C54.5877 32.9569 54.1403 33.4218 53.7335 33.9681C53.3383 34.5027 53.0128 35.0781 52.7571 35.6941C52.5014 36.3101 52.3736 36.8854 52.3736 37.4201C52.3736 37.6409 52.4549 37.7804 52.6176 37.8385C52.9547 37.7688 53.3441 37.484 53.7858 36.9842C54.2274 36.4728 54.7621 35.6883 55.3897 34.6306C55.506 34.4214 55.6338 34.1889 55.7733 33.9332C55.9244 33.6775 56.0755 33.4102 56.2266 33.1312C56.3777 32.8523 56.523 32.5733 56.6624 32.2944C56.8135 32.0038 56.953 31.7248 57.0809 31.4575Z" fill="white"/>
<path d="M62.0798 30.0453C62.382 30.1383 62.6667 30.3475 62.9341 30.673C63.2014 30.9868 63.399 31.3355 63.5268 31.719C63.399 32.0328 63.2014 32.4106 62.9341 32.8523C62.6667 33.2939 62.3994 33.7472 62.1321 34.2121C61.8648 34.6654 61.6207 35.1013 61.3998 35.5197C61.1906 35.9265 61.0686 36.2636 61.0337 36.5309C61.2197 36.3333 61.4231 36.1067 61.6439 35.851C61.8764 35.5837 62.0972 35.3221 62.3064 35.0664C62.5273 34.7991 62.7307 34.5608 62.9166 34.3516C63.1026 34.1308 63.2479 33.9681 63.3525 33.8635C63.5733 33.631 63.8348 33.3637 64.137 33.0615C64.4392 32.7477 64.7531 32.4571 65.0785 32.1898C65.4156 31.9108 65.7526 31.6783 66.0897 31.4924C66.4268 31.2948 66.7348 31.196 67.0137 31.196C67.3159 31.196 67.5658 31.3006 67.7634 31.5098C67.9726 31.7074 68.1353 31.9166 68.2516 32.1375C68.2516 32.1607 68.2051 32.1956 68.1121 32.2421C68.0307 32.2769 67.9087 32.3873 67.746 32.5733C67.5832 32.7825 67.3973 33.0731 67.1881 33.445C66.9905 33.8053 66.7929 34.2005 66.5953 34.6306C66.4093 35.049 66.2524 35.479 66.1246 35.9207C65.9967 36.3624 65.9328 36.7634 65.9328 37.1237C65.9328 37.4143 65.9677 37.6002 66.0374 37.6816C66.1188 37.763 66.2292 37.8036 66.3686 37.8036C66.4965 37.8036 66.6302 37.7746 66.7696 37.7165C66.9091 37.6584 67.0195 37.6293 67.1009 37.6293C67.1474 37.6525 67.1823 37.7048 67.2055 37.7862C67.2404 37.8559 67.2578 37.9199 67.2578 37.978C67.1648 38.0593 67.0544 38.1407 66.9265 38.2221C66.7987 38.3034 66.665 38.379 66.5256 38.4487C66.3861 38.5185 66.2466 38.5766 66.1071 38.6231C65.9793 38.6695 65.863 38.6928 65.7584 38.6928C65.4214 38.6928 65.1424 38.6405 64.9216 38.5359C64.7124 38.4429 64.5438 38.315 64.416 38.1523C64.2998 37.9896 64.2184 37.7978 64.1719 37.577C64.1254 37.3445 64.1022 37.1005 64.1022 36.8447C64.1022 36.7053 64.1138 36.5484 64.137 36.374C64.1603 36.1997 64.2068 35.9963 64.2765 35.7638C64.3462 35.5197 64.445 35.235 64.5729 34.9095C64.7008 34.5725 64.8635 34.1715 65.0611 33.7065C65.0378 33.7065 64.8809 33.7879 64.5903 33.9506C64.2998 34.1134 63.9859 34.3632 63.6489 34.7003C63.1026 35.2233 62.6086 35.7406 62.1669 36.252C61.7369 36.7634 61.2952 37.3329 60.8419 37.9605C60.5862 38.3209 60.3596 38.6231 60.162 38.8671C59.976 39.1228 59.8133 39.2914 59.6738 39.3727C59.4297 39.2333 59.2496 39.0357 59.1334 38.78C59.0171 38.5359 58.93 38.2802 58.8718 38.0129C58.8718 37.792 58.9009 37.5131 58.959 37.176C59.0288 36.8389 59.1159 36.467 59.2205 36.0602C59.3368 35.6418 59.4762 35.2059 59.639 34.7526C59.8017 34.2993 59.9818 33.846 60.1794 33.3927C60.6211 32.3699 61.0221 31.5679 61.3824 30.9868C61.7543 30.4056 61.9868 30.0918 62.0798 30.0453Z" fill="white"/>
<path d="M80.1632 31.0739C80.5468 31.0739 80.8432 31.1786 81.0524 31.3878C81.2732 31.597 81.3836 31.8876 81.3836 32.2595C81.3836 32.3525 81.372 32.4513 81.3488 32.5559C81.3371 32.6489 81.3197 32.7302 81.2965 32.8C81.1454 32.7767 80.9768 32.7593 80.7909 32.7477C80.6049 32.7244 80.3841 32.7128 80.1284 32.7128C79.6286 32.7128 79.123 32.7593 78.6116 32.8523C78.1002 32.9336 77.612 33.0034 77.1471 33.0615C76.8797 33.6775 76.6357 34.2761 76.4148 34.8572C76.194 35.4267 76.0022 35.9498 75.8395 36.4263C75.6884 36.9029 75.5663 37.3155 75.4734 37.6642C75.392 38.0129 75.3455 38.2744 75.3339 38.4487C76.2754 38.2511 77.2226 38.0826 78.1757 37.9431C79.1404 37.8036 80.1516 37.699 81.2093 37.6293C81.3371 37.8269 81.4417 38.0419 81.5231 38.2744C81.6161 38.5068 81.6626 38.7567 81.6626 39.024C81.6626 39.0938 81.6626 39.1693 81.6626 39.2507C81.6626 39.3321 81.651 39.4134 81.6277 39.4948C81.3023 39.4832 80.9594 39.4715 80.5991 39.4599C80.2388 39.4599 79.768 39.4599 79.1869 39.4599C78.8033 39.4599 78.4372 39.4657 78.0885 39.4773C77.7515 39.5006 77.4086 39.5296 77.0599 39.5645C76.7112 39.5994 76.3393 39.6459 75.9441 39.704C75.5605 39.7621 75.1247 39.8318 74.6365 39.9132C74.1019 39.704 73.5846 39.1926 73.0848 38.379C73.2824 37.9605 73.5556 37.3271 73.9043 36.4786C74.2646 35.6185 74.7179 34.4737 75.2642 33.044C74.7411 32.8813 74.3982 32.5907 74.2355 32.1723C74.2936 32.1142 74.4622 32.0445 74.7411 31.9631C75.0201 31.8701 75.3629 31.7771 75.7698 31.6842C75.9441 31.2309 76.0894 30.8357 76.2056 30.4986C76.3335 30.1615 76.4439 29.8477 76.5369 29.5572C76.6298 29.255 76.7112 28.9644 76.7809 28.6854C76.8623 28.3949 76.9379 28.081 77.0076 27.744C76.6008 27.7207 76.2812 27.6103 76.0487 27.4127C75.8162 27.2035 75.7 26.9362 75.7 26.6107C75.7 26.5178 75.7116 26.4073 75.7349 26.2795C75.7697 26.1516 75.8046 26.0412 75.8395 25.9482C76.0719 25.9831 76.2928 26.0063 76.502 26.018C76.7228 26.0296 77.0076 26.0354 77.3563 26.0354C78.0885 26.0354 78.7743 26.018 79.4135 25.9831C80.0528 25.9366 80.6281 25.8901 81.1396 25.8436C81.6626 25.7971 82.1101 25.7564 82.482 25.7216C82.8539 25.6751 83.1387 25.6518 83.3363 25.6518C83.6036 25.6518 83.8419 25.7913 84.0511 26.0703C84.2603 26.3492 84.4172 26.7444 84.5218 27.2558C84.1615 27.2209 83.8651 27.1977 83.6327 27.1861C83.4118 27.1744 83.2142 27.1686 83.0399 27.1686C82.4006 27.1686 81.8137 27.2035 81.279 27.2732C80.756 27.3314 80.2504 27.3953 79.7622 27.465C79.6925 27.5696 79.6111 27.7033 79.5182 27.866C79.4368 28.0287 79.3264 28.2554 79.1869 28.546C79.0474 28.8365 78.8731 29.2027 78.6639 29.6443C78.4663 30.086 78.2222 30.6381 77.9316 31.3006C78.3733 31.2309 78.7859 31.1786 79.1695 31.1437C79.5646 31.0972 79.8959 31.0739 80.1632 31.0739Z" fill="white"/>
<path d="M83.2614 37.3852C83.2614 36.8738 83.3834 36.159 83.6275 35.2408C83.8716 34.3109 84.2145 33.23 84.6561 31.998C85.3768 30.0337 86.0509 28.4007 86.6785 27.0989C87.3178 25.7855 87.9396 24.7627 88.544 24.0304C88.6835 24.0537 88.852 24.1118 89.0496 24.2048C89.2588 24.2978 89.4622 24.4024 89.6598 24.5186C89.8574 24.6232 90.0317 24.7336 90.1828 24.8499C90.3456 24.9661 90.4502 25.0591 90.4967 25.1288C89.5901 26.1981 88.7939 27.3488 88.1081 28.5808C87.4224 29.8129 86.7948 31.225 86.2252 32.8174C85.7371 34.1889 85.3651 35.4267 85.1094 36.5309C84.8537 37.6235 84.7259 38.5359 84.7259 39.2681C84.7259 39.4657 84.7259 39.5878 84.7259 39.6343C84.7259 39.6807 84.7317 39.7272 84.7433 39.7737C84.5806 39.7505 84.4411 39.7098 84.3249 39.6517C84.2086 39.5936 84.1331 39.5238 84.0982 39.4425C84.075 39.3844 84.0111 39.2972 83.9065 39.181C83.8018 39.0764 83.7089 38.995 83.6275 38.9369C83.5229 38.8671 83.4357 38.687 83.366 38.3964C83.2962 38.0942 83.2614 37.7571 83.2614 37.3852Z" fill="white"/>
<path d="M97.4762 33.1486C97.2902 33.1603 97.0635 33.2823 96.7962 33.5148C96.5289 33.7356 96.2383 34.0262 95.9245 34.3865C95.6223 34.7352 95.3027 35.1245 94.9656 35.5546C94.6402 35.9846 94.3205 36.4147 94.0067 36.8447C93.7045 37.2632 93.4197 37.6584 93.1524 38.0303C92.8851 38.4022 92.6584 38.6986 92.4725 38.9194C92.2168 38.8148 91.9959 38.6637 91.81 38.4661C91.624 38.2569 91.4903 38.0012 91.409 37.699C91.4671 37.3387 91.5485 36.9668 91.6531 36.5832C91.7577 36.188 91.8913 35.7812 92.054 35.3628C92.2284 34.9444 92.4376 34.5085 92.6817 34.0552C92.9374 33.5903 93.2454 33.1022 93.6057 32.5907C93.4314 32.6024 93.1931 32.7302 92.8909 32.9743C92.5887 33.2068 92.2633 33.5148 91.9146 33.8983C91.5659 34.2703 91.2056 34.6945 90.8336 35.171C90.4617 35.636 90.113 36.0951 89.7876 36.5484C89.3575 37.1528 88.9972 37.6816 88.7066 38.1349C88.4277 38.5882 88.2243 38.8555 88.0964 38.9369C87.7942 38.716 87.585 38.4778 87.4688 38.2221C87.3526 37.9664 87.2654 37.6816 87.2073 37.3678C87.2189 37.0888 87.2596 36.7401 87.3293 36.3217C87.4107 35.9033 87.5211 35.4732 87.6606 35.0316C87.9279 34.1831 88.2708 33.3404 88.6892 32.5036C89.1193 31.6667 89.5319 30.8996 89.927 30.2022C90.2525 30.272 90.5431 30.3824 90.7988 30.5335C91.0661 30.6846 91.3451 30.9054 91.6356 31.196C91.5194 31.5563 91.3392 31.9399 91.0952 32.3467C90.8511 32.7418 90.5954 33.1603 90.328 33.6019C90.0607 34.0436 89.8166 34.4969 89.5958 34.9618C89.375 35.4267 89.2297 35.8975 89.1599 36.374C89.4854 35.9091 89.8689 35.3744 90.3106 34.77C90.7639 34.1657 91.223 33.5961 91.6879 33.0615C92.1645 32.5268 92.6352 32.0735 93.1001 31.7016C93.565 31.3297 93.9835 31.1437 94.3554 31.1437C94.4949 31.1437 94.646 31.1669 94.8087 31.2134C94.9714 31.2599 95.1225 31.318 95.262 31.3878C95.4015 31.4575 95.5177 31.5272 95.6107 31.597C95.7037 31.6551 95.756 31.7016 95.7676 31.7365C95.7095 31.9689 95.57 32.2885 95.3492 32.6954C95.1399 33.0905 94.9133 33.509 94.6692 33.9506C94.4251 34.3923 94.1985 34.8224 93.9893 35.2408C93.7801 35.6476 93.658 35.973 93.6232 36.2171C94.1927 35.4384 94.7273 34.7352 95.2271 34.1075C95.7269 33.4683 96.1976 32.922 96.6393 32.4687C97.081 32.0154 97.4878 31.6667 97.8597 31.4226C98.2433 31.1786 98.6036 31.0565 98.9407 31.0565C99.1731 31.0565 99.3881 31.1204 99.5857 31.2483C99.7949 31.3645 99.9402 31.5389 100.022 31.7713C99.917 32.12 99.7426 32.5384 99.4986 33.0266C99.2661 33.5148 99.0278 34.032 98.7837 34.5783C98.5397 35.1129 98.3188 35.6418 98.1212 36.1648C97.9353 36.6878 97.8423 37.1586 97.8423 37.577C97.8423 37.8211 97.8771 37.9838 97.9469 38.0652C98.0166 38.1349 98.1154 38.1698 98.2433 38.1698C98.3827 38.1698 98.5106 38.1465 98.6268 38.1C98.7547 38.0419 98.8477 38.0129 98.9058 38.0129C98.9755 38.0593 99.0162 38.1175 99.0278 38.1872C99.0394 38.2569 99.0453 38.3209 99.0453 38.379C98.8128 38.5649 98.5745 38.716 98.3304 38.8323C98.0864 38.9601 97.8132 39.024 97.511 39.024C97.2321 39.024 96.9996 38.9776 96.8137 38.8846C96.6393 38.7916 96.494 38.6637 96.3778 38.501C96.2616 38.3383 96.1802 38.1523 96.1337 37.9431C96.0872 37.7339 96.064 37.5073 96.064 37.2632C96.064 36.868 96.1163 36.4786 96.2209 36.0951C96.3255 35.6999 96.4475 35.3279 96.587 34.9793C96.7381 34.6189 96.895 34.2877 97.0577 33.9855C97.2205 33.6717 97.3599 33.3927 97.4762 33.1486Z" fill="white"/>
<path d="M106.745 31.5621C106.734 31.7829 106.693 32.0154 106.623 32.2595C106.565 32.4919 106.489 32.707 106.396 32.9046C106.303 33.0905 106.205 33.2474 106.1 33.3753C105.995 33.5031 105.897 33.5671 105.804 33.5671C105.676 33.5555 105.6 33.4683 105.577 33.3056C105.577 33.2707 105.589 33.2184 105.612 33.1486C105.647 33.0673 105.682 32.9801 105.717 32.8871C105.751 32.7941 105.78 32.7012 105.804 32.6082C105.839 32.5152 105.856 32.4338 105.856 32.3641C105.856 32.2014 105.815 32.0677 105.734 31.9631C105.664 31.8469 105.565 31.7888 105.438 31.7888C104.973 31.7888 104.618 32.0793 104.374 32.6605C104.13 33.2416 104.008 34.0959 104.008 35.2233C104.008 35.3396 104.014 35.4093 104.025 35.4326C104.269 35.4209 104.484 35.4151 104.67 35.4151C104.868 35.4035 105.06 35.3977 105.246 35.3977C105.257 35.4209 105.263 35.4674 105.263 35.5372C105.263 35.6418 105.24 35.7173 105.193 35.7638C104.926 35.8219 104.711 35.8742 104.548 35.9207C104.397 35.9556 104.281 35.9905 104.2 36.0253C104.118 36.0602 104.066 36.1009 104.043 36.1474C104.031 36.1822 104.025 36.2345 104.025 36.3043C104.025 36.3973 104.025 36.4902 104.025 36.5832C104.037 36.6762 104.043 36.7924 104.043 36.9319C104.043 37.9082 103.775 38.6928 103.241 39.2856C102.718 39.8783 101.986 40.2212 101.044 40.3142C100.881 40.3026 100.713 40.2561 100.538 40.1747C100.364 40.0934 100.196 39.9888 100.033 39.8609C99.8818 39.733 99.7481 39.5878 99.6319 39.425C99.5157 39.2739 99.4343 39.117 99.3878 38.9543C99.3878 38.5126 99.4808 38.0942 99.6668 37.699C99.8527 37.2922 100.103 36.9377 100.416 36.6355C100.742 36.3217 101.12 36.0718 101.55 35.8859C101.991 35.6883 102.468 35.572 102.979 35.5372C102.979 35.2466 102.95 34.9618 102.892 34.6829C102.834 34.4039 102.77 34.1366 102.7 33.8809C102.642 33.6136 102.584 33.3579 102.526 33.1138C102.468 32.8581 102.439 32.6082 102.439 32.3641C102.439 32.0503 102.503 31.7423 102.631 31.4401C102.758 31.1263 102.927 30.8415 103.136 30.5858C103.345 30.3185 103.59 30.0918 103.868 29.9058C104.147 29.7199 104.438 29.592 104.74 29.5223C104.868 29.5572 105.037 29.6618 105.246 29.8361C105.467 29.9988 105.682 30.1848 105.891 30.394C106.1 30.6032 106.286 30.8182 106.449 31.0391C106.611 31.2483 106.71 31.4226 106.745 31.5621ZM100.992 39.5122C101.271 39.396 101.532 39.2274 101.776 39.0066C102.032 38.7858 102.253 38.5359 102.439 38.2569C102.625 37.978 102.77 37.6816 102.875 37.3678C102.991 37.054 103.049 36.7459 103.049 36.4438C102.817 36.4786 102.561 36.589 102.282 36.775C102.003 36.9494 101.741 37.1644 101.497 37.4201C101.253 37.6642 101.05 37.9199 100.887 38.1872C100.724 38.4545 100.643 38.687 100.643 38.8846C100.643 39.1403 100.759 39.3495 100.992 39.5122Z" fill="white"/>
<path d="M107.786 31.8236C107.728 31.7539 107.676 31.6086 107.629 31.3878C107.583 31.1553 107.559 30.9577 107.559 30.795C107.862 30.8182 108.152 30.8415 108.431 30.8647C108.71 30.8764 108.966 30.888 109.198 30.8996C109.373 30.5509 109.559 30.208 109.756 29.871C109.965 29.5223 110.163 29.2085 110.349 28.9295C110.546 28.6389 110.727 28.3949 110.889 28.1973C111.064 27.9997 111.197 27.8718 111.29 27.8137C111.407 27.8137 111.552 27.837 111.726 27.8834C111.912 27.9183 112.098 27.9706 112.284 28.0404C112.47 28.0985 112.639 28.1624 112.79 28.2321C112.941 28.3019 113.045 28.3716 113.104 28.4414C112.755 28.883 112.453 29.2956 112.197 29.6792C111.953 30.0511 111.686 30.4812 111.395 30.9693C111.627 30.9693 111.86 30.9635 112.092 30.9519C112.336 30.9403 112.581 30.9229 112.825 30.8996C112.883 30.9577 112.929 31.0333 112.964 31.1263C112.999 31.2076 113.016 31.2948 113.016 31.3878C112.447 31.597 111.755 31.7132 110.942 31.7365C110.651 32.2944 110.39 32.8523 110.157 33.4102C109.936 33.9564 109.745 34.4853 109.582 34.9967C109.431 35.5081 109.309 35.9905 109.216 36.4438C109.134 36.897 109.094 37.3039 109.094 37.6642C109.094 38.1756 109.285 38.4603 109.669 38.5184C110.018 38.472 110.349 38.3848 110.663 38.2569C110.977 38.1291 111.255 37.9664 111.5 37.7688C111.569 37.8734 111.61 37.9605 111.622 38.0303C111.552 38.1349 111.43 38.2569 111.255 38.3964C111.093 38.5359 110.913 38.6695 110.715 38.7974C110.517 38.9369 110.326 39.0531 110.14 39.1461C109.954 39.2391 109.814 39.2914 109.721 39.303C109.431 39.2914 109.14 39.2274 108.85 39.1112C108.559 38.995 108.292 38.8497 108.048 38.6754C107.815 38.501 107.623 38.3092 107.472 38.1C107.321 37.8792 107.246 37.6642 107.246 37.455C107.246 37.176 107.28 36.8273 107.35 36.4089C107.432 35.9788 107.542 35.5139 107.681 35.0141C107.821 34.5143 107.984 33.9913 108.17 33.445C108.356 32.8988 108.559 32.3583 108.78 31.8236H107.786Z" fill="white"/>
<path d="M112.904 37.3329C112.904 37.2283 112.91 37.1004 112.922 36.9494C112.945 36.7866 112.98 36.5774 113.026 36.3217C113.073 36.0544 113.131 35.7348 113.201 35.3628C113.282 34.9909 113.381 34.5434 113.497 34.0204C113.52 33.9041 113.572 33.7182 113.654 33.4625C113.735 33.2068 113.84 32.9394 113.968 32.6605C114.107 32.3699 114.27 32.091 114.456 31.8236C114.653 31.5563 114.886 31.3587 115.153 31.2309C115.351 31.2774 115.612 31.3994 115.938 31.597C116.263 31.7829 116.542 32.0445 116.775 32.3815C116.507 32.6837 116.281 32.9859 116.095 33.2881C115.92 33.5903 115.758 33.9041 115.606 34.2296C115.467 34.555 115.333 34.8921 115.205 35.2408C115.089 35.5895 114.956 35.9556 114.804 36.3391C114.677 36.6646 114.56 37.0017 114.456 37.3503C114.351 37.6874 114.293 37.9838 114.281 38.2395C114.281 38.4487 114.276 38.594 114.264 38.6754C114.264 38.7683 114.235 38.8148 114.177 38.8148C114.13 38.8148 114.037 38.7858 113.898 38.7277C113.758 38.6695 113.613 38.5824 113.462 38.4661C113.323 38.3383 113.195 38.1814 113.078 37.9954C112.962 37.8094 112.904 37.5886 112.904 37.3329ZM116.234 29.7664C116.234 29.6966 116.252 29.592 116.286 29.4525C116.228 29.3944 116.176 29.3073 116.129 29.191C116.095 29.0748 116.077 28.9702 116.077 28.8772C116.077 28.7726 116.089 28.6331 116.112 28.4588C116.147 28.2728 116.188 28.0752 116.234 27.866C116.281 27.6568 116.339 27.4418 116.408 27.2209C116.478 26.9885 116.548 26.7793 116.618 26.5933C116.757 26.5933 116.926 26.634 117.123 26.7153C117.332 26.7851 117.542 26.8839 117.751 27.0117C117.96 27.128 118.152 27.2616 118.326 27.4127C118.501 27.5522 118.634 27.6859 118.727 27.8137C118.599 27.9416 118.431 28.1217 118.222 28.3542C118.012 28.575 117.809 28.8133 117.611 29.069C117.414 29.3131 117.234 29.5455 117.071 29.7664C116.908 29.9872 116.804 30.1441 116.757 30.2371C116.618 30.2139 116.496 30.1557 116.391 30.0628C116.286 29.9581 116.234 29.8594 116.234 29.7664Z" fill="white"/>
<path d="M116.589 38.1523C116.647 37.8153 116.745 37.3736 116.885 36.8273C117.036 36.2694 117.21 35.6824 117.408 35.0664C117.606 34.4388 117.815 33.8112 118.036 33.1835C118.256 32.5559 118.471 31.9922 118.681 31.4924C118.832 31.1321 118.965 30.8531 119.082 30.6555C119.198 30.4463 119.326 30.272 119.465 30.1325C119.628 30.1557 119.796 30.1964 119.971 30.2545C120.145 30.3126 120.314 30.3824 120.476 30.4637C120.639 30.5451 120.784 30.6323 120.912 30.7253C121.04 30.8066 121.139 30.888 121.209 30.9693C120.895 31.3413 120.616 31.7655 120.372 32.2421C120.139 32.7186 119.901 33.3288 119.657 34.0727C120.285 33.5148 120.837 32.9801 121.313 32.4687C121.801 31.9573 122.255 31.3878 122.673 30.7601C122.743 30.702 122.865 30.673 123.039 30.673C123.202 30.673 123.359 30.702 123.51 30.7601C123.661 30.8066 123.766 30.8764 123.824 30.9693C123.615 31.5272 123.51 32.0793 123.51 32.6256C123.51 33.137 123.586 33.5206 123.737 33.7763C123.725 33.846 123.644 33.9797 123.493 34.1773C123.353 34.3749 123.196 34.5608 123.022 34.7352C122.708 34.5725 122.429 34.3516 122.185 34.0727C121.941 33.7821 121.761 33.4683 121.645 33.1312C121.098 33.5148 120.633 33.8925 120.25 34.2644C119.866 34.6248 119.535 35.0316 119.256 35.4849C118.989 35.9265 118.756 36.4379 118.559 37.0191C118.373 37.6002 118.192 38.2918 118.018 39.0938C117.914 39.0822 117.786 39.0415 117.635 38.9717C117.495 38.9136 117.35 38.8381 117.199 38.7451C117.059 38.6521 116.931 38.5533 116.815 38.4487C116.699 38.3441 116.623 38.2453 116.589 38.1523Z" fill="white"/>
<path d="M130.594 35.7987C130.327 36.6472 130.059 37.4201 129.792 38.1175C129.525 38.8148 129.24 39.4541 128.938 40.0352C128.635 40.628 128.31 41.1685 127.961 41.6566C127.613 42.1564 127.229 42.6272 126.811 43.0688C126.276 43.6267 125.724 44.051 125.154 44.3415C124.585 44.6437 124.015 44.7948 123.446 44.7948C123.155 44.7948 122.865 44.76 122.574 44.6902C122.295 44.6321 122.034 44.545 121.79 44.4287C121.534 44.3241 121.313 44.1963 121.127 44.0452C120.929 43.9057 120.79 43.7546 120.709 43.5919C120.709 43.4524 120.79 43.3304 120.953 43.2257C121.092 43.3536 121.208 43.4524 121.301 43.5221C121.394 43.5919 121.487 43.65 121.58 43.6965C121.662 43.743 121.755 43.772 121.859 43.7836C121.952 43.7953 122.063 43.8011 122.191 43.8011C122.853 43.8011 123.498 43.6035 124.126 43.2083C124.765 42.8248 125.364 42.2727 125.922 41.552C126.491 40.843 127.008 39.9771 127.473 38.9543C127.938 37.9431 128.333 36.8099 128.659 35.5546C128.508 35.7871 128.322 36.0718 128.101 36.4089C127.88 36.7459 127.636 37.083 127.369 37.4201C127.101 37.7455 126.822 38.0419 126.532 38.3092C126.253 38.5766 125.98 38.7567 125.712 38.8497C125.526 38.8381 125.329 38.7974 125.12 38.7277C124.922 38.6695 124.73 38.5824 124.544 38.4661C124.37 38.3499 124.213 38.2104 124.073 38.0477C123.934 37.885 123.841 37.699 123.795 37.4898C123.795 37.1528 123.806 36.8854 123.829 36.6878C123.853 36.4786 123.893 36.252 123.951 36.0079C124.056 35.5662 124.207 35.0664 124.405 34.5085C124.614 33.9506 124.852 33.4044 125.12 32.8697C125.398 32.3234 125.701 31.8178 126.026 31.3529C126.363 30.8764 126.712 30.5044 127.072 30.2371C127.165 30.2371 127.281 30.2487 127.421 30.272C127.56 30.2836 127.706 30.3126 127.857 30.3591C128.008 30.4056 128.153 30.4637 128.293 30.5335C128.432 30.5916 128.554 30.673 128.659 30.7776C128.531 30.8938 128.252 31.2832 127.822 31.9457C127.392 32.6082 126.915 33.5613 126.392 34.8049C126.334 34.9328 126.264 35.1187 126.183 35.3628C126.102 35.6069 126.02 35.8626 125.939 36.1299C125.869 36.3973 125.805 36.6588 125.747 36.9145C125.689 37.1702 125.66 37.3736 125.66 37.5247C125.66 37.6177 125.672 37.6874 125.695 37.7339C125.73 37.7804 125.759 37.8153 125.782 37.8385C125.991 37.8036 126.27 37.6351 126.619 37.3329C126.968 37.0191 127.363 36.5367 127.804 35.8859C128.083 35.4674 128.339 35.0548 128.572 34.648C128.804 34.2296 129.031 33.8112 129.251 33.3927C129.484 32.9743 129.722 32.5443 129.966 32.1026C130.21 31.6609 130.472 31.2076 130.751 30.7427C130.902 30.7427 131.065 30.7601 131.239 30.795C131.413 30.8299 131.582 30.8764 131.745 30.9345C131.907 30.981 132.047 31.0391 132.163 31.1088C132.291 31.1669 132.384 31.2309 132.442 31.3006C132.082 32.0677 131.745 32.8174 131.431 33.5496C131.117 34.2819 130.838 35.0316 130.594 35.7987Z" fill="white"/>
<path d="M82.998 44.9662C82.815 45.6749 82.2425 46.0303 81.2805 46.0325L81.0794 47.8425C81.073 47.8936 81.0464 47.9202 80.9996 47.9223L80.3292 47.9574C80.2824 47.9532 80.2589 47.933 80.2589 47.8968L80.8112 43.0668C80.8197 43.0221 80.8474 42.9976 80.8942 42.9933C81.2922 42.9572 81.6721 42.9391 82.0339 42.9391C82.7532 42.9391 83.1129 43.2838 83.1129 43.9734C83.1129 44.3501 83.0746 44.681 82.998 44.9662ZM81.5423 43.6829L81.3603 45.295C81.7285 45.295 81.9764 45.2184 82.1041 45.0652C82.2318 44.9119 82.2957 44.614 82.2957 44.1713C82.2957 44.0011 82.2499 43.8755 82.1584 43.7946C82.0669 43.7137 81.9498 43.6733 81.8072 43.6733C81.6646 43.6733 81.5763 43.6765 81.5423 43.6829Z" fill="white"/>
<path d="M85.1262 42.6294L84.9251 44.4203C85.2124 44.1777 85.5051 44.0564 85.803 44.0564C86.1606 44.0564 86.3862 44.2522 86.4798 44.6438C86.5053 44.7502 86.5181 44.8513 86.5181 44.9471C86.5181 45.0407 86.5149 45.1163 86.5085 45.1737L86.2021 47.8489C86.1936 47.9021 86.1669 47.9308 86.1223 47.9351L85.4774 47.9574C85.4306 47.9532 85.4072 47.933 85.4072 47.8968L85.6977 45.3684C85.7041 45.3131 85.7073 45.2631 85.7073 45.2184C85.7073 45.0439 85.6658 44.9258 85.5828 44.8641C85.5019 44.8002 85.3976 44.7683 85.2699 44.7683C85.1443 44.7683 85.0135 44.7949 84.8772 44.8481L84.5389 47.8489C84.5303 47.9021 84.5037 47.9308 84.459 47.9351L83.8142 47.9574C83.7674 47.9532 83.744 47.933 83.744 47.8968L84.3377 42.6518C84.342 42.622 84.3484 42.6007 84.3569 42.5879C84.3675 42.5751 84.3878 42.5677 84.4175 42.5656L85.0432 42.5432C85.0986 42.5496 85.1262 42.5783 85.1262 42.6294Z" fill="white"/>
<path d="M88.5538 47.9798C88.1771 47.9798 87.9004 47.867 87.7238 47.6414C87.5493 47.4137 87.462 47.0827 87.462 46.6486C87.462 46.4464 87.4844 46.1825 87.5291 45.8569C87.5737 45.5313 87.6152 45.295 87.6536 45.1482C87.6919 44.9992 87.7461 44.8545 87.8164 44.714C87.8866 44.5714 87.9696 44.4544 88.0654 44.3629C88.2761 44.1586 88.5612 44.0564 88.9209 44.0564C89.4317 44.0564 89.7626 44.2437 89.9137 44.6182C89.9946 44.8183 90.035 45.0609 90.035 45.3461C90.035 45.6292 90.0127 45.9228 89.968 46.2272C89.9254 46.5315 89.885 46.7571 89.8467 46.904C89.8084 47.0487 89.7541 47.1913 89.6839 47.3317C89.6158 47.4701 89.5338 47.585 89.4381 47.6765C89.2274 47.8787 88.9326 47.9798 88.5538 47.9798ZM89.1188 46.5815C89.1422 46.4687 89.172 46.258 89.2082 45.9495C89.2465 45.6387 89.2657 45.4089 89.2657 45.2599C89.2657 44.8981 89.1348 44.7172 88.873 44.7172C88.7496 44.7172 88.6474 44.7757 88.5666 44.8928C88.4878 45.0098 88.424 45.2046 88.375 45.477C88.2771 46.0303 88.2282 46.4794 88.2282 46.8242C88.2282 47.1689 88.358 47.3413 88.6176 47.3413C88.7411 47.3413 88.8432 47.2828 88.9241 47.1657C89.0071 47.0466 89.072 46.8518 89.1188 46.5815Z" fill="white"/>
<path d="M91.3844 44.0979C91.4333 43.6297 91.4653 43.3881 91.4801 43.3732C91.495 43.3562 91.5174 43.3466 91.5472 43.3445L92.1569 43.3222C92.2144 43.3264 92.2431 43.353 92.2431 43.402C92.2027 43.6382 92.1686 43.8649 92.141 44.0819L92.8848 44.0564C92.9359 44.0585 92.9614 44.0862 92.9614 44.1394L92.872 44.647C92.8635 44.6981 92.8369 44.7247 92.7922 44.7268L92.0612 44.7555C91.9164 46.058 91.8441 46.7763 91.8441 46.9103C91.8441 47.1593 91.9505 47.2838 92.1633 47.2838C92.2718 47.2838 92.3772 47.2668 92.4794 47.2328C92.5815 47.1987 92.6454 47.1817 92.6709 47.1817C92.7156 47.1817 92.7379 47.2094 92.7379 47.2647L92.6709 47.8234C92.6666 47.8553 92.6581 47.8787 92.6454 47.8936C92.6347 47.9085 92.5826 47.9266 92.4889 47.9479C92.3974 47.9691 92.2399 47.9798 92.0165 47.9798C91.6887 47.9798 91.4461 47.9042 91.2886 47.7531C91.1311 47.5999 91.0524 47.3722 91.0524 47.07C91.0524 46.7678 91.1364 45.9995 91.3046 44.7651L90.9917 44.7779C90.9385 44.7757 90.9119 44.7491 90.9119 44.6981L90.9981 44.1841C91.0045 44.1351 91.0322 44.1096 91.0811 44.1075L91.3844 44.0979Z" fill="white"/>
<path d="M94.6619 47.9798C94.2852 47.9798 94.0085 47.867 93.8319 47.6414C93.6574 47.4137 93.5701 47.0827 93.5701 46.6486C93.5701 46.4464 93.5925 46.1825 93.6372 45.8569C93.6818 45.5313 93.7233 45.295 93.7617 45.1482C93.8 44.9992 93.8542 44.8545 93.9245 44.714C93.9947 44.5714 94.0777 44.4544 94.1735 44.3629C94.3842 44.1586 94.6693 44.0564 95.029 44.0564C95.5398 44.0564 95.8707 44.2437 96.0218 44.6182C96.1027 44.8183 96.1431 45.0609 96.1431 45.3461C96.1431 45.6292 96.1208 45.9228 96.0761 46.2272C96.0335 46.5315 95.9931 46.7571 95.9548 46.904C95.9165 47.0487 95.8622 47.1913 95.792 47.3317C95.7239 47.4701 95.6419 47.585 95.5462 47.6765C95.3355 47.8787 95.0407 47.9798 94.6619 47.9798ZM95.2269 46.5815C95.2503 46.4687 95.2801 46.258 95.3163 45.9495C95.3546 45.6387 95.3738 45.4089 95.3738 45.2599C95.3738 44.8981 95.2429 44.7172 94.9811 44.7172C94.8577 44.7172 94.7555 44.7757 94.6747 44.8928C94.5959 45.0098 94.5321 45.2046 94.4831 45.477C94.3852 46.0303 94.3363 46.4794 94.3363 46.8242C94.3363 47.1689 94.4661 47.3413 94.7257 47.3413C94.8492 47.3413 94.9513 47.2828 95.0322 47.1657C95.1152 47.0466 95.1801 46.8518 95.2269 46.5815Z" fill="white"/>
<path d="M98.6353 48.0596L98.7183 47.3732C98.6119 47.569 98.4981 47.7191 98.3768 47.8234C98.2576 47.9276 98.1214 47.9798 97.9681 47.9798C97.817 47.9798 97.6904 47.9553 97.5882 47.9064C97.4861 47.8553 97.402 47.7893 97.3361 47.7084C97.2722 47.6254 97.2201 47.5265 97.1796 47.4115C97.1051 47.2072 97.0679 46.9284 97.0679 46.5751C97.0679 46.2197 97.0913 45.9186 97.1381 45.6717C97.1871 45.4248 97.2296 45.2376 97.2658 45.1099C97.302 44.98 97.3499 44.847 97.4095 44.7108C97.4712 44.5746 97.5404 44.4608 97.617 44.3692C97.7915 44.1607 98.0118 44.0564 98.2778 44.0564C98.4736 44.0564 98.6236 44.1032 98.7279 44.1969C98.8322 44.2905 98.9205 44.4299 98.9929 44.6151L99.0248 44.1873C99.0291 44.1362 99.0567 44.1096 99.1078 44.1075L99.7527 44.0851C99.7973 44.0915 99.8197 44.1139 99.8197 44.1522L99.3855 48.0245C99.3238 48.597 99.1461 49.0045 98.8524 49.2471C98.6204 49.4408 98.3087 49.5376 97.9171 49.5376C97.6681 49.5376 97.4159 49.5089 97.1605 49.4514C97.1243 49.4451 97.0998 49.4355 97.0871 49.4227C97.0743 49.4121 97.0679 49.3908 97.0679 49.3589L97.1317 48.7811C97.1381 48.7236 97.1615 48.6949 97.202 48.6949C97.2296 48.6949 97.3073 48.7161 97.435 48.7587C97.5627 48.8013 97.7053 48.8226 97.8628 48.8226C98.0203 48.8226 98.1426 48.8077 98.2299 48.7779C98.3193 48.7502 98.3906 48.7023 98.4438 48.6342C98.5374 48.5193 98.6013 48.3277 98.6353 48.0596ZM97.8724 46.4826C97.8724 46.9912 98.0086 47.2455 98.281 47.2455C98.4002 47.2455 98.497 47.1913 98.5715 47.0827C98.646 46.9721 98.7098 46.7518 98.763 46.4219C98.8184 46.092 98.846 45.8516 98.846 45.7004C98.846 45.5493 98.845 45.4536 98.8428 45.4131C98.8407 45.3727 98.8364 45.3195 98.8301 45.2535C98.8237 45.1854 98.812 45.129 98.795 45.0843C98.7779 45.0375 98.7556 44.9907 98.7279 44.9439C98.6726 44.8524 98.5832 44.8066 98.4598 44.8066C98.3363 44.8066 98.2384 44.8619 98.1661 44.9726C98.0937 45.0811 98.0373 45.2269 97.9969 45.4099C97.9139 45.8015 97.8724 46.1591 97.8724 46.4826Z" fill="white"/>
<path d="M102.711 44.8992L102.369 44.8641C102.093 44.8641 101.861 44.9194 101.673 45.0301L101.357 47.8457C101.349 47.8989 101.322 47.9276 101.278 47.9319L100.633 47.9574C100.586 47.9532 100.562 47.933 100.562 47.8968L100.984 44.1841C100.992 44.1373 101.019 44.1117 101.064 44.1075L101.686 44.0851C101.744 44.0873 101.772 44.1149 101.772 44.1681L101.734 44.4969C101.87 44.3586 102.002 44.2511 102.13 44.1745C102.258 44.0958 102.385 44.0564 102.513 44.0564C102.643 44.0564 102.742 44.0617 102.81 44.0724C102.855 44.0809 102.877 44.1107 102.877 44.1617C102.877 44.3086 102.852 44.5267 102.804 44.8162C102.793 44.8715 102.762 44.8992 102.711 44.8992Z" fill="white"/>
<path d="M106.158 44.1681L105.743 47.8489C105.736 47.9042 105.709 47.933 105.66 47.9351L105.015 47.9574C104.97 47.9532 104.948 47.933 104.948 47.8968L105.008 47.4626C104.91 47.6286 104.803 47.7563 104.686 47.8457C104.571 47.9351 104.441 47.9798 104.297 47.9798C104.152 47.9798 104.028 47.9553 103.926 47.9064C103.824 47.8553 103.74 47.7893 103.674 47.7084C103.61 47.6254 103.558 47.5265 103.518 47.4115C103.443 47.2072 103.406 46.9284 103.406 46.5751C103.406 46.2197 103.429 45.9186 103.476 45.6717C103.525 45.4248 103.568 45.2376 103.604 45.1099C103.64 44.98 103.688 44.847 103.747 44.7108C103.809 44.5746 103.878 44.4608 103.955 44.3692C104.129 44.1607 104.35 44.0564 104.616 44.0564C104.814 44.0564 104.965 44.1043 105.069 44.2001C105.173 44.2937 105.261 44.4331 105.331 44.6182L105.369 44.1841C105.373 44.1373 105.4 44.1117 105.449 44.1075L106.075 44.0851C106.13 44.0894 106.158 44.117 106.158 44.1681ZM104.21 46.4826C104.21 46.9912 104.347 47.2455 104.619 47.2455C104.738 47.2455 104.835 47.1913 104.909 47.0827C104.984 46.9721 105.048 46.7518 105.101 46.4219C105.156 46.092 105.184 45.8516 105.184 45.7004C105.184 45.5493 105.183 45.4536 105.181 45.4131C105.179 45.3727 105.174 45.3195 105.168 45.2535C105.162 45.1854 105.15 45.129 105.133 45.0843C105.116 45.0375 105.094 44.9907 105.066 44.9439C105.011 44.8524 104.921 44.8066 104.798 44.8066C104.674 44.8066 104.576 44.8619 104.504 44.9726C104.432 45.0811 104.375 45.2269 104.335 45.4099C104.252 45.8015 104.21 46.1591 104.21 46.4826Z" fill="white"/>
<path d="M106.747 49.4195L107.341 44.1873C107.347 44.1362 107.374 44.1096 107.421 44.1075L108.062 44.0851C108.109 44.0894 108.133 44.1117 108.133 44.1522L108.069 44.5767C108.167 44.4086 108.273 44.2799 108.388 44.1905C108.505 44.1011 108.636 44.0564 108.781 44.0564C108.928 44.0564 109.052 44.0819 109.154 44.133C109.256 44.182 109.339 44.2479 109.403 44.3309C109.469 44.4118 109.522 44.5097 109.563 44.6246C109.637 44.8289 109.675 45.1088 109.675 45.4642C109.675 45.8175 109.65 46.1176 109.601 46.3645C109.554 46.6113 109.513 46.7997 109.477 46.9295C109.44 47.0572 109.392 47.1891 109.33 47.3253C109.27 47.4616 109.202 47.5754 109.125 47.6669C108.951 47.8755 108.746 47.9798 108.509 47.9798C108.273 47.9798 108.103 47.9298 107.999 47.8297C107.894 47.7297 107.805 47.5786 107.73 47.3764L107.542 49.3972C107.54 49.4483 107.512 49.4749 107.459 49.477L106.833 49.4993C106.776 49.4972 106.747 49.4706 106.747 49.4195ZM108.873 45.5536C108.873 45.0471 108.737 44.7938 108.465 44.7938C108.341 44.7938 108.242 44.8481 108.168 44.9566C108.095 45.0652 108.032 45.2876 107.976 45.6238C107.923 45.9601 107.896 46.2016 107.896 46.3485C107.896 46.4932 107.897 46.5858 107.9 46.6262C107.902 46.6645 107.906 46.7177 107.912 46.7858C107.919 46.8539 107.93 46.9103 107.948 46.955C107.965 46.9997 107.987 47.0444 108.015 47.0891C108.07 47.1828 108.159 47.2296 108.283 47.2296C108.406 47.2296 108.503 47.1753 108.573 47.0668C108.646 46.9582 108.702 46.8103 108.742 46.623C108.83 46.2229 108.873 45.8665 108.873 45.5536Z" fill="white"/>
<path d="M111.902 42.6294L111.701 44.4203C111.988 44.1777 112.281 44.0564 112.579 44.0564C112.936 44.0564 113.162 44.2522 113.255 44.6438C113.281 44.7502 113.294 44.8513 113.294 44.9471C113.294 45.0407 113.29 45.1163 113.284 45.1737L112.978 47.8489C112.969 47.9021 112.942 47.9308 112.898 47.9351L112.253 47.9574C112.206 47.9532 112.183 47.933 112.183 47.8968L112.473 45.3684C112.48 45.3131 112.483 45.2631 112.483 45.2184C112.483 45.0439 112.441 44.9258 112.358 44.8641C112.277 44.8002 112.173 44.7683 112.045 44.7683C111.92 44.7683 111.789 44.7949 111.653 44.8481L111.314 47.8489C111.306 47.9021 111.279 47.9308 111.235 47.9351L110.59 47.9574C110.543 47.9532 110.52 47.933 110.52 47.8968L111.113 42.6518C111.118 42.622 111.124 42.6007 111.132 42.5879C111.143 42.5751 111.163 42.5677 111.193 42.5656L111.819 42.5432C111.874 42.5496 111.902 42.5783 111.902 42.6294Z" fill="white"/>
<path d="M114.365 47.3477C114.316 47.22 114.282 47.0944 114.263 46.971C114.246 46.8454 114.238 46.6741 114.238 46.457C114.238 46.24 114.261 45.9718 114.308 45.6526C114.463 44.5885 114.946 44.0564 115.757 44.0564C116.07 44.0564 116.309 44.1639 116.475 44.3788C116.641 44.5938 116.724 44.8726 116.724 45.2152C116.724 45.5579 116.703 45.8909 116.661 46.2144C116.654 46.2719 116.621 46.3017 116.562 46.3038L114.985 46.3581C114.982 46.39 114.981 46.4326 114.981 46.4858C114.981 46.7263 115.023 46.9167 115.106 47.0572C115.191 47.1977 115.319 47.2679 115.489 47.2679C115.659 47.2679 115.817 47.2434 115.961 47.1945C116.108 47.1434 116.194 47.1178 116.22 47.1178C116.246 47.1178 116.268 47.1264 116.287 47.1434C116.306 47.1604 116.316 47.1838 116.316 47.2136L116.252 47.7755C116.25 47.8074 116.243 47.8287 116.233 47.8393C116.224 47.8478 116.206 47.8574 116.179 47.868C115.921 47.9425 115.673 47.9798 115.435 47.9798C115.196 47.9798 115.011 47.951 114.879 47.8936C114.747 47.8361 114.641 47.7627 114.56 47.6733C114.481 47.5818 114.416 47.4733 114.365 47.3477ZM115.061 45.5568L115.032 45.7611L115.866 45.7196C115.902 45.7175 115.925 45.7111 115.936 45.7004C115.968 45.6685 115.984 45.5813 115.984 45.4387C115.984 45.294 115.978 45.1929 115.968 45.1354C115.959 45.0758 115.943 45.0152 115.92 44.9534C115.871 44.8172 115.787 44.7491 115.668 44.7491C115.551 44.7491 115.458 44.7694 115.39 44.8098C115.239 44.9034 115.129 45.1524 115.061 45.5568Z" fill="white"/>
<path d="M119.715 44.8992L119.373 44.8641C119.096 44.8641 118.864 44.9194 118.677 45.0301L118.361 47.8457C118.353 47.8989 118.326 47.9276 118.281 47.9319L117.636 47.9574C117.59 47.9532 117.566 47.933 117.566 47.8968L117.988 44.1841C117.996 44.1373 118.023 44.1117 118.067 44.1075L118.69 44.0851C118.747 44.0873 118.776 44.1149 118.776 44.1681L118.738 44.4969C118.874 44.3586 119.006 44.2511 119.134 44.1745C119.261 44.0958 119.389 44.0564 119.517 44.0564C119.646 44.0564 119.745 44.0617 119.814 44.0724C119.858 44.0809 119.881 44.1107 119.881 44.1617C119.881 44.3086 119.856 44.5267 119.807 44.8162C119.797 44.8715 119.766 44.8992 119.715 44.8992Z" fill="white"/>
</svg>
