<svg width="40" height="41" viewBox="0 0 40 41" fill="none" xmlns="http://www.w3.org/2000/svg">
<path d="M10.5723 34.6598L11.2262 34.9869C13.9512 36.6217 17.003 37.3847 20.0548 37.3847C29.6462 37.3847 37.4938 29.5372 37.4938 19.9458C37.4938 15.3681 35.6408 10.8994 32.3711 7.62953C29.1012 4.35969 24.7414 2.50688 20.0548 2.50688C10.4634 2.50688 2.61578 10.3544 2.72484 20.0548C2.72484 23.3245 3.70578 26.4855 5.34062 29.2102L5.77656 29.8642L4.03281 36.2948L10.5723 34.6598Z" fill="#00E676"/>
<path d="M34.2239 5.88562C30.5181 2.07094 25.3955 0 20.1637 0C9.04656 0 0.109062 9.04641 0.217969 20.0547C0.217969 23.5425 1.19891 26.9214 2.83391 29.9731L0 40.3275L10.5723 37.6027C13.5152 39.2377 16.7848 40.0006 20.0548 40.0006C31.0631 40.0006 40.0006 30.9541 40.0006 19.9459C40.0006 14.6052 37.9295 9.59141 34.2239 5.88562ZM20.1637 36.6219C17.2209 36.6219 14.2781 35.8591 11.7712 34.3331L11.1173 34.0061L4.79578 35.6409L6.43062 29.4284L5.99469 28.7744C1.19891 21.0359 3.48781 10.7903 11.3353 5.99453C19.1828 1.19891 29.3192 3.48781 34.115 11.3353C38.9106 19.1828 36.6217 29.3192 28.7744 34.115C26.2673 35.7498 23.2156 36.6219 20.1637 36.6219ZM29.7552 24.5238L28.5562 23.9788C28.5562 23.9788 26.8125 23.2158 25.7225 22.6708C25.6134 22.6708 25.5045 22.5617 25.3955 22.5617C25.0684 22.5617 24.8505 22.6708 24.6325 22.7798C24.6325 22.7798 24.5236 22.8887 22.9977 24.6327C22.8886 24.8506 22.6706 24.9597 22.4527 24.9597H22.3436C22.2347 24.9597 22.0167 24.8506 21.9077 24.7417L21.3627 24.5238C20.1637 23.9788 19.0739 23.3247 18.2019 22.4528C17.9839 22.2348 17.6569 22.0169 17.4389 21.7989C16.6759 21.0359 15.913 20.1639 15.3681 19.183L15.2591 18.965C15.1502 18.8559 15.1502 18.747 15.0411 18.5291C15.0411 18.3111 15.0411 18.0931 15.1502 17.9841C15.1502 17.9841 15.5861 17.4391 15.913 17.1122C16.1311 16.8941 16.24 16.5672 16.458 16.3492C16.6759 16.0222 16.785 15.5862 16.6759 15.2592C16.567 14.7142 15.2591 11.7714 14.9322 11.1175C14.7141 10.7905 14.4962 10.6816 14.1692 10.5725H12.9703C12.7522 10.5725 12.5344 10.6816 12.3162 10.6816L12.2072 10.7905C11.9892 10.8995 11.7713 11.1175 11.5533 11.2264C11.3353 11.4445 11.2263 11.6623 11.0083 11.8805C10.2453 12.8614 9.80937 14.0603 9.80937 15.2592C9.80937 16.1311 10.0273 17.0031 10.3544 17.7661L10.4634 18.0931C11.4444 20.1639 12.7522 22.0169 14.4963 23.6517L14.9322 24.0877C15.2591 24.4147 15.5861 24.6327 15.8041 24.9595C18.093 26.9216 20.7087 28.3384 23.6516 29.1014C23.9786 29.2103 24.4145 29.2103 24.7416 29.3194H25.8314C26.3764 29.3194 27.0303 29.1014 27.4664 28.8834C27.7933 28.6655 28.0113 28.6655 28.2292 28.4475L28.4473 28.2294C28.6653 28.0114 28.8833 27.9025 29.1012 27.6845C29.3192 27.4666 29.5372 27.2486 29.6462 27.0305C29.8642 26.5945 29.9731 26.0495 30.0822 25.5047V24.7417C30.0822 24.7417 29.9731 24.6327 29.7552 24.5238Z" fill="white"/>
</svg>
