<svg width="16" height="21" viewBox="0 0 16 21" fill="none" xmlns="http://www.w3.org/2000/svg">
<path d="M12.9776 0C12.9776 0 13.0006 0 13.0466 0C14.2774 0 15.1516 0.432707 15.6692 1.29812C16.1293 2.09781 16.0833 2.94679 15.5312 3.84507L11.4765 10.615L15.5312 16.9742C16.1063 17.8834 16.1523 18.7817 15.6692 19.669C15.1861 20.5563 14.3119 21 13.0466 21H12.9776C11.8619 21 11.097 20.5563 10.6829 19.669L8.00856 14.0822L5.33425 19.669C4.90866 20.5454 4.14375 20.989 3.03952 21C3.03952 21 2.91299 21 2.65994 21C1.63622 21 0.865558 20.5618 0.347948 19.6854C-0.158158 18.8091 -0.112149 17.9053 0.485978 16.9742L4.55784 10.615L0.485978 3.84507C-0.0431341 2.9687 -0.0833926 2.11972 0.365202 1.29812C0.813797 0.432707 1.57871 0 2.65994 0H3.03952C4.16675 0 4.93167 0.443662 5.33425 1.33099L8.00856 7.13146L10.6829 1.33099C11.0855 0.443662 11.8504 0 12.9776 0Z" fill="white"/>
</svg>
